<svg xmlns="http://www.w3.org/2000/svg"  viewBox="0 0 100 100" width="200px" height="200px"><path fill="#fcba7f" d="M22,70.217C22,77,22,83,18,87c6.709,0,15-2,20.18-9.376C41.916,78.518,45.885,79,50,79c22.091,0,40-13.879,40-31S72.091,17,50,17S10,30.879,10,48c0,8.671,4.595,16.514,12,22.141V70.217z"/><path fill="#fdfcee" d="M49.5 28.5A5 4.5 0 1 0 49.5 37.5 5 4.5 0 1 0 49.5 28.5zM42.5 40.5h12v20c0 .552.448 1 1 1h4v4h-18v-4h4c.552 0 1-.448 1-1v-15c0-.552-.448-1-1-1h-3V40.5z"/><path fill="#1f212b" d="M18,88c-0.404,0-0.769-0.244-0.924-0.617c-0.155-0.374-0.069-0.804,0.217-1.09c3.629-3.629,3.706-9.2,3.707-15.66C13.257,64.593,9,56.573,9,48c0-17.645,18.393-32,41-32s41,14.355,41,32S72.607,80,50,80c-3.879,0-7.711-0.421-11.4-1.252C32.585,86.781,23.156,88,18,88z M50,18c-21.505,0-39,13.458-39,30c0,8.078,4.122,15.659,11.605,21.344C22.854,69.534,23,69.828,23,70.141v0.077c0,5.901,0,11.519-2.823,15.706c5.067-0.356,12.451-2.134,17.184-8.874c0.236-0.335,0.651-0.493,1.051-0.398C42.149,77.546,46.048,78,50,78c21.505,0,39-13.458,39-30S71.505,18,50,18z"/><path fill="#1f212b" d="M20.298 63c-.139 0-.277-.058-.375-.17C16.048 58.423 14 53.294 14 48c0-14.888 16.149-27 36-27 9.379 0 18.263 2.697 25.017 7.595.223.162.272.475.11.698-.162.224-.476.273-.698.111C67.845 24.629 59.169 22 50 22c-19.299 0-35 11.664-35 26 0 5.048 1.962 9.948 5.674 14.17.182.208.162.523-.045.706C20.534 62.959 20.416 63 20.298 63zM50 75c-1.178 0-2.368-.043-3.537-.129-.275-.02-.482-.26-.462-.535.02-.275.256-.486.535-.462C47.682 73.958 48.847 74 50 74c19.299 0 35-11.664 35-26 0-4.445-1.546-8.836-4.472-12.698-.167-.22-.124-.534.097-.7.218-.167.532-.125.7.097C84.384 38.735 86 43.335 86 48 86 62.888 69.851 75 50 75zM79.701 34c-.139 0-.276-.058-.376-.17-.292-.333-.595-.661-.906-.983-.192-.199-.187-.515.012-.707.198-.191.517-.187.707.012.323.334.636.673.939 1.018.182.208.161.523-.046.706C79.937 33.959 79.818 34 79.701 34zM77.212 31.5c-.118 0-.237-.042-.333-.127-.229-.205-.463-.406-.7-.604-.212-.177-.239-.493-.062-.705.177-.211.492-.239.704-.062.245.206.486.414.724.625.206.184.224.5.04.706C77.486 31.443 77.35 31.5 77.212 31.5z"/><g><path fill="#1f212b" d="M49.5,38c-3.033,0-5.5-2.243-5.5-5s2.467-5,5.5-5c3.032,0,5.5,2.243,5.5,5S52.532,38,49.5,38z M49.5,29c-2.481,0-4.5,1.794-4.5,4s2.019,4,4.5,4s4.5-1.794,4.5-4S51.981,29,49.5,29z"/></g><g><path fill="#1f212b" d="M59.5,66h-18c-0.276,0-0.5-0.224-0.5-0.5v-4c0-0.276,0.224-0.5,0.5-0.5h4c0.276,0,0.5-0.224,0.5-0.5v-15c0-0.276-0.224-0.5-0.5-0.5h-3c-0.276,0-0.5-0.224-0.5-0.5v-4c0-0.276,0.224-0.5,0.5-0.5h12c0.276,0,0.5,0.224,0.5,0.5v20c0,0.276,0.225,0.5,0.5,0.5h4c0.276,0,0.5,0.224,0.5,0.5v4C60,65.776,59.776,66,59.5,66z M42,65h17v-3h-3.5c-0.827,0-1.5-0.673-1.5-1.5V41H43v3h2.5c0.827,0,1.5,0.673,1.5,1.5v15c0,0.827-0.673,1.5-1.5,1.5H42V65z"/></g></svg>